<?xml version="1.0" standalone="no"?><svg xmlns="http://www.w3.org/2000/svg" viewBox="0 0 1440 320"><path fill="#0099ff" fill-opacity="1" d="M0,224L20,192C40,160,80,96,120,69.3C160,43,200,53,240,80C280,107,320,149,360,154.7C400,160,440,128,480,133.3C520,139,560,181,600,213.3C640,245,680,267,720,250.7C760,235,800,181,840,170.7C880,160,920,192,960,218.7C1000,245,1040,267,1080,261.3C1120,256,1160,224,1200,186.7C1240,149,1280,107,1320,106.7C1360,107,1400,149,1420,170.7L1440,192L1440,320L1420,320C1400,320,1360,320,1320,320C1280,320,1240,320,1200,320C1160,320,1120,320,1080,320C1040,320,1000,320,960,320C920,320,880,320,840,320C800,320,760,320,720,320C680,320,640,320,600,320C560,320,520,320,480,320C440,320,400,320,360,320C320,320,280,320,240,320C200,320,160,320,120,320C80,320,40,320,20,320L0,320Z"></path></svg>